<svg width="309" height="317" viewBox="0 0 309 317" fill="none" xmlns="http://www.w3.org/2000/svg">
<path d="M38.625 26.4167C24.4033 26.4167 12.875 38.3042 12.875 52.8334V145.292V171.708V264.167C12.875 278.696 24.4033 290.583 38.625 290.583H154.5H270.375C284.602 290.583 296.125 278.696 296.125 264.167V171.708V145.292V52.8334C296.125 38.3042 284.602 26.4167 270.375 26.4167H154.5H38.625Z" fill="#2C3E50"/>
<path d="M38.625 277.375C24.4033 277.375 12.875 265.488 12.875 250.959V158.5V132.084V92.4585H296.125V132.084V158.5V250.959C296.125 265.488 284.602 277.375 270.375 277.375H154.5H38.625Z" fill="#34495E"/>
<path d="M51.5 59.4375V73.9663L77.25 105.667L51.5 136.045V150.575L90.125 105.667L51.5 59.4375V59.4375Z" fill="#ECF0F1"/>
<path d="M38.625 26.4167C24.4033 26.4167 12.875 38.2435 12.875 52.8334V145.292V171.708V211.333H296.125V171.708V145.292V52.8334C296.125 38.2435 284.602 26.4167 270.375 26.4167H154.5H38.625Z" fill="#34495E"/>
<path d="M51.5 67.6929V82.5523L90.125 105.667L51.5 128.781V143.641L115.875 105.667L51.5 67.6929ZM115.875 132.084V145.292H180.25V132.084H115.875Z" fill="#ECF0F1"/>
</svg>
